<svg xmlns="http://www.w3.org/2000/svg" viewBox="0 0 200 200">
  <rect width="200" height="200" fill="#0A0A0A" rx="28"/>
  <g transform="translate(10,58) scale(0.45)">
    <path fill="#AED8E6" d="M240.12,123.51v-.1s-26.99-27-26.99-27c-2.12-2.12-2.12-5.55,0-7.67h0c2.16-2.16,2.16-5.66,0-7.82l-34.09-34.09c-2.16-2.16-5.66-2.16-7.82,0l-3.83,3.83c-1.09-.05-6.76-.4-11.06-5.15-1.36-1.51-2.26-3.1-2.86-4.57-1.71-4.2-3.95-8.16-7.16-11.37l-14.59-14.59c-2.16-2.16-5.66-2.16-7.82,0l-21.68,21.68c-2.16,2.16-2.16,5.66,0,7.82l12.57,12.57c3.66,3.66,8.13,6.61,13.18,7.77,1.9.43,4.02,1.34,5.93,3.11l.15.15c4.5,4.25,4.6,11.3.23,15.68l-2.77,2.77c-2.16,2.16-2.16,5.66,0,7.82l34.09,34.09c2.16,2.16,5.66,2.16,7.82,0l2.1-2.1c2.36-2.36,6.2-2.36,8.56,0h0c5.99,5.99,13.91,9.64,22.35,10.3l9.86.77c17.99,1.41,27.1,21.4,21.14,37h2.95c13.08-14.46,13-36.56-.27-50.92Z"/>
    <polygon fill="#AED8E6" points="122.51 178.48 162.44 138.55 122.12 98.22 41.86 178.48 122.51 178.48"/>
    <polygon fill="#F7F4ED" points="247.65 53.34 372.79 178.48 399.04 178.48 220.31 0 182.35 37.82 222.76 78.23 247.65 53.34"/>
    <polygon fill="#F7F4ED" points="311.19 78.39 350.94 118.02 350.94 50.41 311.19 50.41 311.19 78.39"/>
    <polygon fill="#F7F4ED" points="242.74 72.17 229.69 85.22 322.94 178.48 349.2 178.48 242.74 72.17"/>
  </g>
</svg>
